<?xml version="1.0" encoding="UTF-8"?>
<svg version="1.1" xmlns="http://www.w3.org/2000/svg" viewBox="0 0 512 1024" role="img" aria-label="Jefe left concept first-pass trace">
<g fill="#000000">
<path d="M0 0 C7.305822690644163 5.671975070736437 11.877890421785764 13.053485170259933 14 22 C14.936035187936568 32.677331620532414 14.667622538027558 42.0305818183391 7.87109375 50.72265625 C4.509690085745092 54.5713803795835 1.1820743397499314 58.04403381894946 -3 61 C-2.806640625 62.25812500000001 -2.61328125 63.516250000000014 -2.4140625 64.8125 C-0.7802402078050363 75.5253309268295 0.7224541470741315 86.23855493300084 2 97 C2.916523437500018 97.01417968750002 3.8330468750000364 97.02835937499998 4.77734375 97.04296875 C37.88981519989818 98.02041263779375 71.02578652466389 105.73134364010252 102.0556640625 116.93896484375 C103.89539412924654 117.6019388794117 105.7404291617238 118.25057461461728 107.5927734375 118.87744140625 C109.75339644905478 119.61555645512004 111.87526562760223 120.41514909202459 114 121.25 C115.11374999999998 121.66765625 116.22750000000002 122.08531249999999 117.375 122.515625 C124.20172795443273 128.97663538544526 123.7328755038568 142.50994134786652 124.625 151.4375 C124.74979736328123 152.63729492187497 124.87459472656252 153.83708984375 125.003173828125 155.0732421875 C126.09655407425504 166.0346149536133 126.6742437432157 176.99168511556564 127 188 C127.74636718750003 188.26296875000003 128.492734375 188.5259375 129.26171875 188.796875 C139.24960079826286 193.1852739598644 145.30494306334873 205.15083806099312 149.1328125 214.87890625 C149.87634163291693 217.24304014349798 150.487876464534 219.57624292266524 151 222 C151.226875 223.0725 151.45375 224.14499999999998 151.6875 225.25 C153.20507179697114 243.4608615636538 151.16607708945588 260.54255493687725 140.12890625 275.54296875 C137.36634983630057 278.80456761262576 134.5566149422329 281.6023634503481 131 284 C130.33999999999997 284 129.68 284 129 284 C129.0111030578613 284.7405815124512 129.02220611572267 285.48116302490234 129.0336456298828 286.2441864013672 C129.13394257887802 293.2326567856966 129.21001306131194 300.22101923321316 129.25906085968018 307.2100248336792 C129.28512544065717 310.803008595656 129.3204632887294 314.3953963562294 129.377197265625 317.988037109375 C129.4316333505302 321.4569818564362 129.46144415617619 324.9253543865426 129.47438621520996 328.3946933746338 C129.48808448819676 330.35851050793053 129.52710018399102 332.3220982463354 129.5664825439453 334.2855682373047 C129.56928825224105 343.20715947624603 129.56928825224105 343.20715947624603 126.689697265625 347.217529296875 C125.80209716796872 347.80574462890627 124.9144970703125 348.39395996093754 124 349 C123.39494628906249 349.4139501953125 122.78989257812498 349.827900390625 122.16650390625 350.25439453125 C121.6088232421875 350.54427246093746 121.051142578125 350.8341503906249 120.4765625 351.1328125 C119.84750000000003 351.4641015625 119.2184375 351.795390625 118.5703125 352.13671875 C117.92835937500001 352.46285156249996 117.28640625000003 352.7889843749999 116.625 353.125 C115.99078125 353.4588671875 115.3565625 353.792734375 114.703125 354.13671875 C110.54691793927947 356.29964283261984 106.32538394282221 358.20055086616435 102 360 C102.22139648437502 360.5482543945312 102.44279296874998 361.09650878906245 102.6708984375 361.661376953125 C105.13324374276533 367.76663530496785 107.57313606966812 373.88055803539055 110 380 C110.46921874999998 381.1769140624999 110.93843750000002 382.35382812500006 111.421875 383.56640625 C114.92376681614354 392.68908819133026 114.92376681614354 392.68908819133026 114 397 C110.1053874742168 401.4068633028688 105.53209612182854 404.67625064361823 100.75 408.0625 C99.9564208984375 408.6297680664063 99.162841796875 409.1970361328125 98.34521484375 409.781494140625 C95.90058566616972 411.52637669559226 93.45100071817512 413.2640819781474 91 415 C90.281669921875 415.510146484375 89.56333984374999 416.02029296875 88.8232421875 416.5458984375 C79.6580945191418 423.0531102733639 70.44371565354754 429.48992198833275 61.23095703125 435.929443359375 C56.46896709158659 439.2611780501842 51.722193799745526 442.61212504441505 47 446 C41.25481046546906 450.12000802310786 35.47667602474496 454.19204707743813 29.6875 458.25 C28.863144531249986 458.82878906249994 28.038789062499973 459.407578125 27.189453125 460.00390625 C21.842798072355663 463.7461346456562 16.445866603283662 467.4037192201438 11 471 C11.181757812499995 471.62978759765633 11.363515624999991 472.25957519531244 11.55078125 472.908447265625 C12.376719953209829 475.7904968367293 13.188446784599705 478.67636818216874 14 481.5625 C14.286171875000036 482.5531445312499 14.572343749999959 483.5437890625001 14.8671875 484.564453125 C17.754158266129025 494.9094317036289 17.754158266129025 494.9094317036289 17 500 C15.234375 502.3359375 15.234375 502.3359375 12.75 504.375 C11.830898437499968 505.1394140625 10.911796874999993 505.903828125 9.96484375 506.69140625 C6.109694983718327 509.6932414553655 2.223697695098508 512.6435045309535 -1.71484375 515.53515625 C-6.115264416752211 518.7946771668067 -10.346416221433174 522.270672739466 -14.572998046875 525.751220703125 C-25.79552580120378 534.872496165062 -25.79552580120378 534.872496165062 -30.56640625 535.1484375 C-34.126175419587526 533.4685464312058 -36.93753308834374 531.1510002496638 -39.9375 528.625 C-41.274078457862345 527.5252376858546 -42.6113337775534 526.4262975375085 -43.94921875 525.328125 C-44.28655029296874 525.049365234375 -44.28655029296874 525.049365234375 -45.99365234375 523.638671875 C-48.460404807778104 521.6239672584805 -50.97340640387199 519.6749651079622 -53.49560546875 517.73046875 C-58.54677323509759 513.8278687724378 -63.51498589240191 509.83671572715343 -68.3125 505.625 C-69.19550781250001 504.854140625 -70.07851562500002 504.08328125 -70.98828125 503.2890625 C-73.29196328726493 500.6677854634228 -73.6017723790157 499.4170298057229 -74 496 C-73.654541015625 493.4921875 -73.654541015625 493.4921875 -73.00390625 490.875 C-72.77509765625001 489.92109374999995 -72.54628906250002 488.9671875 -72.310546875 487.984375 C-72.06369140624997 486.99953125 -71.8168359375 486.01468750000004 -71.5625 485 C-71.07962797565779 483.0428953496155 -70.60159113721238 481.0845900086115 -70.12890625 479.125 C-69.91306884765629 478.261328125 -69.69723144531247 477.39765624999995 -69.474853515625 476.5078125 C-68.98448931108362 473.9180844233682 -68.81836927416504 471.62873279245537 -69 469 C-70.3984375 467.296875 -70.3984375 467.296875 -72.375 465.75 C-73.10847656249996 465.1544531249999 -73.84195312500003 464.55890625000006 -74.59765625 463.9453125 C-74.99404296875002 463.62433593750006 -74.99404296875002 463.62433593750006 -77 462 C-78.61183424135288 460.55014580596594 -80.21575248179926 459.0914529207156 -81.8125 457.625 C-85.35160002485821 454.4234756698206 -88.97103105562712 451.36853936889213 -92.6875 448.375 C-96.46392006812948 445.31991859656944 -99.95322920030173 442.1713568665132 -103.32421875 438.6796875 C-105.14344456242196 436.8562210679686 -107.04767910635042 435.1798172125092 -109 433.5 C-114.46480582524225 428.7382686084147 -114.46480582524225 428.7382686084147 -116.9375 426.4375 C-117.50339843749998 425.92058593749994 -118.06929687500002 425.403671875 -118.65234375 424.87109375 C-120.52152962904995 422.2759052396668 -120.68916668204852 420.1705956314927 -121 417 C-120.410888671875 414.226806640625 -120.410888671875 414.226806640625 -119.41796875 411.41015625 C-119.06283203125 410.3782617187501 -118.7076953125 409.34636718749994 -118.341796875 408.283203125 C-117.96087890625 407.2203710937499 -117.5799609375 406.15753906250006 -117.1875 405.0625 C-116.45063294383272 402.9496333799601 -115.71492544023062 400.8363619491736 -114.98046875 398.72265625 C-114.63419433593748 397.7353955078124 -114.28791992187502 396.7481347656251 -113.93115234375 395.73095703125 C-112.83369466430185 392.5122465954064 -111.88270885871296 389.2833033210329 -111 386 C-111.35404907226564 385.940703125 -111.35404907226564 385.940703125 -113.145751953125 385.640625 C-116.17408067753229 384.9609282612398 -118.80899538322183 383.9548819990357 -121.66796875 382.75 C-122.72564453125 382.3065624999999 -123.7833203125 381.8631250000001 -124.873046875 381.40625 C-125.41993164062501 381.17421875 -125.41993164062501 381.17421875 -128.1875 380 C-129.29287109375 379.53593750000005 -130.3982421875 379.071875 -131.537109375 378.59375 C-139.58832046332054 375.20583976833973 -139.58832046332054 375.20583976833973 -142 374 C-142.8515625 371.3828125 -142.8515625 371.3828125 -143.625 368.125 C-143.885390625 367.055078125 -144.14578125 365.98515625000005 -144.4140625 364.8828125 C-145 362 -145 362 -145 359 C-146.00675781249998 359.3145312500001 -147.013515625 359.6290624999999 -148.05078125 359.953125 C-161.6382501927671 363.81673083853616 -175.80817563316998 362.5256302120712 -188.17578125 355.81640625 C-197.49970508787194 349.81969174846404 -203.04542895591052 341.57369388867687 -206.63671875 331.15234375 C-208.2478653517875 321.6067332383343 -208.35000953420075 310.3317481812619 -203 302 C-196.31373472342926 293.16956236718556 -190.39254335290607 288.9325147197626 -179.390625 287.41015625 C-173.4450016504543 286.7851407222795 -167.4709504905583 286.56012415233647 -161.5 286.3125 C-160.353701171875 286.26399902343746 -159.20740234375 286.2154980468749 -158.0263671875 286.16552734375 C-156.934853515625 286.1276611328125 -155.84333984375002 286.08979492187495 -154.71875 286.05078125 C-153.73841796875 286.0163793945312 -152.7580859375 285.9819775390624 -151.748046875 285.946533203125 C-149.0402254384668 285.9992173622047 -146.63145396716658 286.3820161091237 -144 287 C-144.0116015625 285.7251171875 -144.023203125 284.45023437500004 -144.03515625 283.13671875 C-144.09884942316904 272.5964937963528 -143.94077657623453 262.0941822493422 -143.5 251.5625 C-142.99021606733754 239.36797781696464 -142.89489814910215 227.20349268758463 -143 215 C-144.485 214.175 -144.485 214.175 -152 210 C-152.2778570417991 192.19803746483905 -150.98473128663161 174.5403234331617 -149.59417724609375 156.8018798828125 C-149.28423211974933 152.84525727251304 -148.98018616792666 148.8917073822454 -148.77294921875 144.92822265625 C-147.9289890852391 128.9289890852391 -147.9289890852391 128.9289890852391 -143.62109375 124.62109375 C-140.7938265316958 123.18037903722427 -138.15097690548146 122.26822026837044 -135.0693359375 121.53515625 C-132.82333866695467 120.95431316162865 -130.70862862225763 120.19566600431142 -128.5390625 119.375 C-105.04264853561546 110.5201610518875 -80.47747410504746 104.43943869001055 -56 99 C-53.69 85.80000000000001 -51.379999999999995 72.60000000000002 -49 59 C-50.31999999999999 58.34000000000003 -51.639999999999986 57.68000000000001 -53 57 C-59.78176448054353 50.66440423528172 -64.56029516299083 43.062160129913366 -65.23828125 33.71484375 C-65.46608829802 22.120663990245333 -63.627089718862976 13.057057473762143 -55.9609375 4 C-40.39331776981999 -11.87773167699632 -17.892873276373678 -10.720936467248691 0 0 Z M-52 12 C-56.25467634768472 18.399693232113066 -57.91008407241014 25.32929138968592 -57 33 C-54.726907574486404 42.39362291507439 -50.06509014392361 49.57920170654313 -42 55 C-41.34000000000003 55 -40.68000000000001 55 -40 55 C-42.97000000000003 71.82999999999998 -45.94 88.65999999999997 -49 106 C-53.289999999999964 106.99000000000001 -57.58000000000004 107.98000000000002 -62 109 C-79.1125266289227 113.02613803891518 -96.18956798640147 117.11450338577555 -112.875 122.6875 C-113.9051220703125 123.0311962890625 -114.935244140625 123.37489257812501 -115.99658203125 123.72900390625 C-123.83924642275079 126.43270972336887 -131.41193195957896 129.65852347358748 -139 133 C-140.53811514851554 148.73870931527142 -142.03380147156622 164.47775507109384 -143.1875 180.25 C-143.2711279296875 181.35891601562503 -143.354755859375 182.46783203125 -143.44091796875 183.6103515625 C-143.94522817564794 190.75745750541932 -144.0699278629629 197.83508357949296 -144 205 C-140.7 206.64999999999998 -137.4 208.3 -134 210 C-134.06058593749998 211.54977539062497 -134.12117187500002 213.09955078125 -134.18359375 214.6962890625 C-134.41266358473484 220.5932241390724 -134.6345225607703 226.4904143673184 -134.8544921875 232.3876953125 C-134.94961150211208 234.9125066500224 -135.0465404746342 237.4372506314404 -135.1455078125 239.9619140625 C-135.85047757477028 257.98899798341154 -136.13643803804035 275.96026756264297 -136 294 C-137.1290576171875 293.9895263671875 -138.258115234375 293.97905273437505 -139.42138671875 293.96826171875 C-143.651985360379 293.93177681112184 -147.8825703844323 293.90899687774413 -152.11328125 293.89013671875 C-153.93654731161274 293.880143570251 -155.7597976162241 293.86654448725926 -157.5830078125 293.84912109375 C-184.65725829098687 293.5970607114202 -184.65725829098687 293.5970607114202 -194 302 C-200.2325505794979 309.7349076404271 -200.77077700702708 317.2661875112582 -200 327 C-197.88530580223025 336.83460193179667 -192.32613361824528 344.474673176599 -183.91796875 349.96875 C-170.93540591191157 356.94919111864624 -154.98180382687454 354.2912764644519 -141 352 C-140.01 351.6700000000001 -139.02 351.3399999999999 -138 351 C-137.87882812499998 351.96421875 -137.75765625 352.9284375 -137.6328125 353.921875 C-137.465234375 355.18515625 -137.29765625 356.44843749999995 -137.125 357.75 C-136.962578125 359.00296875000004 -136.80015625 360.2559375000001 -136.6328125 361.546875 C-135.730788118314 366.46903273710143 -135.730788118314 366.46903273710143 -134 369 C-131.28198242187503 370.508056640625 -131.28198242187503 370.508056640625 -127.85546875 371.91015625 C-127.24866775512697 372.16373397827147 -126.64186676025389 372.41731170654293 -126.01667785644531 372.67857360839844 C-124.07860746249818 373.4859616687211 -122.13369415129856 374.27492099852805 -120.1875 375.0625 C-118.253535723514 375.8568799878344 -116.32124921780576 376.6550791390937 -114.39045715332031 377.45713806152344 C-112.63201360926624 378.18575996462346 -110.86921100517259 378.90383534498585 -109.106201171875 379.621337890625 C-106.23990318212674 380.893520925138 -103.6449500797876 382.32224007198056 -101 384 C-101.16922973632813 384.47159545898444 -101.16922973632813 384.47159545898444 -102.025634765625 386.858154296875 C-103.2810481313883 390.3668446886438 -104.52022522754618 393.881089149221 -105.754638671875 397.397216796875 C-106.29060503616813 398.91667901006144 -106.83093124594762 400.4346108019156 -107.375732421875 401.950927734375 C-108.15921723873464 404.13395255285786 -108.92672770850538 406.3220465607351 -109.69140625 408.51171875 C-109.937179107666 409.18587326049806 -110.18295196533205 409.8600277709961 -110.43617248535156 410.5546112060547 C-111.75921249883874 414.3998672915153 -112.42593759491206 417.12752988183775 -111 421 C-109.77587890624991 422.6181640625001 -109.77587890624991 422.6181640625001 -108.2265625 424.015625 C-107.65462158203127 424.53987060546876 -107.08268066406248 425.0641162109375 -106.493408203125 425.604248046875 C-106.18512084960938 425.87579711914066 -106.18512084960938 425.87579711914066 -104.625 427.25 C-103.99231201171875 427.82210205078127 -103.3596240234375 428.39420410156254 -102.707763671875 428.983642578125 C-98.14427082461935 433.0780826273758 -93.4402176390297 436.9821968922482 -88.65625 440.81640625 C-84.83404676755242 443.95848214255625 -81.208860366713 447.3013175008583 -77.56640625 450.6484375 C-75.31654764042685 452.7099517815267 -73.04666651329757 454.74096994790534 -70.75 456.75 C-70.1273828125 457.3055859374999 -69.504765625 457.8611718750001 -68.86328125 458.43359375 C-66.99999999999989 460 -66.99999999999989 460 -64.91796875 461.41015625 C-60.21797642309036 464.73815870633257 -60.21797642309036 464.73815870633257 -59.6484375 468.03515625 C-60.082311430634036 474.2230249273764 -61.99601958727527 480.40407329905725 -63.626220703125 486.37841796875 C-65.53707392131196 493.4818640884848 -65.53707392131196 493.4818640884848 -65 497 C-59.267541158976314 505.03757456545645 -49.82475743757618 511.07563189934126 -42 517 C-41.4055810546875 517.4503662109375 -40.811162109375005 517.900732421875 -40.19873046875 518.36474609375 C-36.811026874362256 520.9259062385527 -33.41097797775592 523.4698789725437 -30 526 C-25.095289058702065 522.8200225765212 -20.44651422200394 519.3732809023556 -15.8125 515.8125 C-15.066535644531257 515.2409619140625 -14.320571289062514 514.669423828125 -13.552001953125 514.08056640625 C-8.35375840269137 510.08191752130097 -3.240916057944446 505.9995062962489 1.80078125 501.8046875 C4 500 4 500 6.14111328125 498.66796875 C8 497 8 497 8.279541015625 494.91064453125 C7.360703530204432 488.38125930994363 5.846922397285539 482.1836252754863 3.9375 475.875 C3.655839843749959 474.91851562500005 3.374179687500032 473.96203125 3.083984375 472.9765625 C2.3972251518922576 470.6485651335329 1.7025005375674596 468.3232856664599 1 466 C1.5792724609374886 465.7232543945313 2.1585449218749773 465.4465087890625 2.75537109375 465.161376953125 C4.93024532706761 464.03609125289745 6.893568552301247 462.7988942914682 8.9140625 461.41796875 C9.665988769531282 460.9046801757813 10.417915039062507 460.3913916015624 11.192626953125 459.862548828125 C11.995310058593759 459.3097827148438 12.797993164062518 458.75701660156255 13.625 458.1875 C14.463132324218748 457.6121752929687 15.301264648437495 457.0368505859375 16.164794921875 456.444091796875 C24.18234820524367 450.916947322306 32.07252170950318 445.2202157298128 39.94677734375 439.49169921875 C48.46317982952263 433.3043961048295 57.061980892971235 427.2528035379487 65.756103515625 421.318115234375 C70.9220391633026 417.7769446759346 75.99990975776626 414.1244920824977 81.0625 410.4375 C88.89823699585105 404.733232686855 96.88703298472188 399.3009504244369 105 394 C103.57553901343232 386.2916311184024 100.93411284689904 379.4141264553931 97.9375 372.1875 C97.02768870995169 369.97358332646024 96.12004145716526 367.7587757659244 95.21484375 365.54296875 C94.81386474609377 364.5738354492187 94.41288574218748 363.6047021484376 93.999755859375 362.606201171875 C93.1553139666151 360.4048782890393 92.5026950597856 358.29895586760824 92 356 C92.65226562499998 355.7589453124999 93.30453125000003 355.51789062500006 93.9765625 355.26953125 C97.89730652827035 353.6232240029872 101.61788321222554 351.67443676276537 105.375 349.6875 C106.104609375 349.3091601562501 106.83421874999999 348.9308203124999 107.5859375 348.541015625 C107.94687499999998 348.350556640625 107.94687499999998 348.350556640625 109.7734375 347.38671875 C110.41716308593749 347.0485815429688 111.06088867187498 346.7104443359375 111.72412109375 346.362060546875 C112.4751611328125 345.9125805664062 113.226201171875 345.4631005859376 114 345 C114.59335647583009 344.74121566772465 115.18671295166018 344.4824313354493 115.79804992675781 344.21580505371094 C118.06755795072075 343.01915995135823 119.41494090866178 342.0332380203222 121 340 C121.99858406649702 335.4648265616379 121.81343483756905 331.0105996545583 121.68359375 326.38671875 C121.67052714888177 325.0486765032265 121.66056797563283 323.7106006150948 121.65357971191406 322.3725128173828 C121.62693492582395 318.8617092175866 121.55825231648646 315.352954229543 121.48065185546875 311.84295654296875 C121.40885993170991 308.25691441065953 121.37703474226845 304.67053900539327 121.341796875 301.083984375 C121.26687135023997 294.0551547590784 121.1475066844838 287.02771157125073 121 280 C121.77939941406248 279.699970703125 122.55879882812502 279.39994140625 123.36181640625 279.0908203125 C132.2733600454324 275.4061287541188 136.63448352058828 267.7776457451467 140.58984375 259.46484375 C146.64824514714735 244.57896552487625 146.34188987565392 227.54809264414678 140.31640625 212.62890625 C136.12577137133377 204.26007161100182 130.64042119719574 197.03901345904416 122 193 C121.00999999999999 193 120.01999999999998 193 119 193 C119.02175292968752 192.44449462890623 119.04350585937499 191.8889892578125 119.06591796875 191.316650390625 C119.25018724912019 182.21813530415517 118.30629533454635 173.24288716368073 117.40087890625 164.202392578125 C117.12534598195242 161.44096747399226 116.86094931817331 158.67863162615947 116.59765625 155.916015625 C116.42254026636078 154.13014297469834 116.24678062252633 152.3443332977934 116.0703125 150.55859375 C115.99313995361331 149.747889251709 115.91596740722656 148.93718475341797 115.83645629882813 148.10191345214844 C114.20298450676 132.06818488461033 114.20298450676 132.06818488461033 110.69921875 128.95703125 C109.70535156250003 128.5793359375 108.711484375 128.20164062499998 107.6875 127.8125 C106.51187499999997 127.35488281250002 105.33625 126.89726562499999 104.125 126.42578125 C102.75091476370153 125.94788248766974 101.37585096306185 125.4727912764551 100 125 C98.43745842436573 124.43110376280953 96.87496057847818 123.86208740632475 95.3125 123.29296875 C64.05586255771772 112.19406951835822 28.30444467870882 104.18371459120812 -5 105 C-5.069931640624986 104.43418212890623 -5.139863281249973 103.86836425781252 -5.2119140625 103.285400390625 C-7.141338614437018 87.79882149103423 -9.450523000367411 72.3961922705086 -12 57 C-11.389467773437502 56.538193359374986 -10.778935546875005 56.07638671874997 -10.14990234375 55.6005859375 C-9.345043945312511 54.984736328124995 -8.540185546875023 54.36888671874999 -7.7109375 53.734375 C-6.914780273437486 53.12819335937502 -6.118623046874973 52.52201171874998 -5.29833984375 51.8974609375 C1.5015242860262106 46.28363641905719 4.695089923359035 39.674545080908445 6 31 C6.471064334264497 22.406644568871855 2.5592992451914824 14.52405122746518 -3.0625 8.1875 C-9.370981840901095 2.4376526201722015 -17.107855188245935 -0.26090743834407704 -25.5625 -0.5625 C-36.45569841978113 -0.05493161484889697 -44.79545655133063 3.7469782947675014 -52 12 Z " fill="#000000"/>
<path d="M0 0 C2.0965226053604056 3.1447839080406084 2.2779120309222662 4.056556390335345 2.4140625 7.671875 C2.4334387207031227 8.152091064453089 2.4334387207031227 8.152091064453089 2.531494140625 10.582275390625 C2.562351074218782 11.62762451171875 2.593208007812507 12.6729736328125 2.625 13.75 C2.662946777343791 14.830798339843795 2.700893554687468 15.911596679687477 2.739990234375 17.025146484375 C3.1758179309500747 31.01215190302969 3.0906653394198997 45.00824585044484 3 59 C5.458881801234838 58.08478344867194 7.917155918602816 57.16799655334148 10.375 56.25 C11.103642578125005 55.97849121093748 11.832285156250009 55.706982421874955 12.5830078125 55.42724609375 C17.430833802764937 53.61279860602576 22.228436021591506 51.70944884386097 26.984375 49.6640625 C29 49 29 49 33 49 C32.96970703124998 48.084121093750014 32.939414062499964 47.16824218750003 32.908203125 46.224609375 C32.79431256539965 42.74306257613898 32.68279593178261 39.261454957283945 32.57275390625 35.77978515625 C32.525164526562946 34.28854479545248 32.476697637436814 32.797332114118944 32.42724609375 31.30615234375 C32.08184803612755 20.866672275610426 31.936353383800906 10.445116902889367 32 0 C33.485000000000014 0.3300000000000409 33.485000000000014 0.3300000000000409 41 2 C42.13215116123848 19.00248440359917 42.10689174245147 35.969678694966774 42 53 C33.15506883682497 57.234625259566315 24.087627220274328 60.73259866115882 14.875 64.0625 C14.491604614257824 64.20131591796871 14.491604614257824 64.20131591796871 12.5513916015625 64.90380859375 C-14.22737728028892 74.54674489039667 -41.87599700719511 83.34095993345215 -70 88 C-71.11568359375002 88.18498046875004 -72.23136718749998 88.36996093749997 -73.380859375 88.560546875 C-139.41819662697884 99.28394171580794 -139.41819662697884 99.28394171580794 -158.0986328125 87.94482421875 C-161.54130041232895 86.23409956398132 -165.22098594658854 85.90987675667645 -169 85.4375 C-176.4328390323193 84.47098150166994 -182.49508857067408 83.50491142932594 -188 78 C-188.66 74.37 -189.32 70.74000000000001 -190 67 C-180.76 66.34000000000003 -171.52 65.68000000000006 -162 65 C-161.67000000000002 67.97000000000003 -161.33999999999997 70.94000000000005 -161 74 C-160.33999999999997 74.33000000000004 -159.68 74.65999999999997 -159 75 C-159 71.37 -159 67.74000000000001 -159 64 C-157.7560546875 63.75765624999997 -156.51210937500002 63.51531250000005 -155.23046875 63.265625 C-123.65654937576687 56.97306510058024 -123.65654937576687 56.97306510058024 -117.453125 47.68359375 C-116.97359375000002 46.880507812500014 -116.49406249999998 46.07742187500003 -116 45.25 C-113.68884494329512 42.001300910858276 -111.93149562634079 40.75668222448928 -108.09375 40.015625 C-104.31162727135347 39.512752399676515 -100.53204929359805 39.271851025366914 -96.720947265625 39.124755859375 C-94.77420732311845 39.03549752733181 -92.82911668205412 38.90681043145025 -90.886474609375 38.752197265625 C-79.11045476328479 37.81577510271279 -67.36812925726906 37.88790044782911 -55.5625 37.9375 C-53.46289169953002 37.94252803069253 -51.36328222540169 37.94708861877598 -49.263671875 37.951171875 C-44.17575168309838 37.96206732800965 -39.087889190593444 37.979259153503335 -34 38 C-34 38.33000000000004 -34 38.65999999999997 -34 39 C-34.38200561523439 39.049548339843795 -34.38200561523439 39.049548339843795 -36.315185546875 39.30029296875 C-53.51621783272424 41.58870667234328 -70.58326357827849 44.474918979679956 -87.56118774414063 48.07012939453125 C-89.49337841165789 48.47603409970861 -91.42776404026438 48.87165116366168 -93.36434936523438 49.25604248046875 C-106.87322130192058 51.95678996762081 -117.61727326332715 56.20638857319375 -129 64 C-129.9740478515625 64.66515625 -130.94809570312498 65.33031249999999 -131.95166015625 66.015625 C-133.48039432033062 67.0860961716188 -134.99928888202828 68.1707623171867 -136.5078125 69.26953125 C-140.69699940166163 72.17832403595003 -145.11256322539776 74.71743034841506 -149.5078125 77.30078125 C-150.33023437500003 77.86152343749995 -151.15265625 78.42226562500002 -152 79 C-152 79.65999999999997 -152 80.31999999999994 -152 81 C-146.45228599637437 82.53513795825859 -141.30479527419106 83.38297779456605 -135.5625 83.625 C-134.77810546875003 83.660771484375 -133.9937109375 83.69654296875001 -133.185546875 83.7333984375 C-130.79065487668208 83.83438785911585 -128.39562898727593 83.91862195513977 -126 84 C-125.3179248046875 84.028681640625 -124.63584960937499 84.05736328124999 -123.93310546875 84.0869140625 C-85.20244728032492 85.60500981883126 -43.327810237831784 74.85803091573575 -7 62 C-4.940775984140146 59.940775984140146 -5.585724205215001 55.78291875912748 -5.4375 52.9375 C-5.415908203125014 52.55819335937497 -5.415908203125014 52.55819335937497 -5.306640625 50.638671875 C-5.200263667306899 48.75934562242185 -5.099600660059252 46.879697563246054 -5 45 C-4.669999999999959 45 -4.340000000000032 45 -4 45 C-3.669999999999959 49.950000000000045 -3.340000000000032 54.89999999999998 -3 60 C-2.1750000000000114 59.835000000000036 -2.1750000000000114 59.835000000000036 2 59 C1.8598931468465025 54.52063523824586 1.7118764655416498 50.04156446676325 1.5625 45.5625 C1.523183593749991 44.302441406249955 1.4838671874999818 43.04238281250002 1.443359375 41.744140625 C1.2182130642645461 35.11098393179384 0.8524156595351542 28.582941101788265 0 22 C-0.6599999999999682 22 -1.3199999999999932 22 -2 22 C-2.330000000000041 22.659999999999968 -2.659999999999968 23.32000000000005 -3 24 C-3 18.389999999999986 -3 12.779999999999973 -3 7 C-2.009999999999991 7.990000000000009 -1.0199999999999818 8.980000000000018 0 10 C0 6.7000000000000455 0 3.3999999999999773 0 0 Z " fill="#000000"/>
<path d="M0 0 C1.0388635253906386 -0.001007080078125 2.0777270507812773 -0.00201416015625 3.1480712890625 -0.0030517578125 C18.64351368638637 0.007094316245002119 33.78369810709961 0.41856322724510164 49.0625 3.25 C49.98981933593751 3.421123046874982 50.91713867187502 3.5922460937500205 51.87255859375 3.7685546875 C66.73907598107428 6.58828799053714 66.73907598107428 6.58828799053714 70.0625 8.25 C73.60793256292197 22.362211966140535 73.24971978261732 37.77167014426004 73.0625 52.25 C73.7495703125 52.29898437500003 74.436640625 52.34796875000001 75.14453125 52.3984375 C76.0455859375 52.473203125 76.94664062499999 52.547968749999995 77.875 52.625 C78.76832031250001 52.69460937500003 79.66164062500002 52.76421875 80.58203125 52.8359375 C83.0625 53.25 83.0625 53.25 86.0625 55.25 C86.25 58.37499999999994 86.25 58.37499999999994 86.0625 61.25 C85.39347656250004 61.10562500000003 84.72445312499997 60.96125000000001 84.03515625 60.8125 C63.011717291937885 56.748909114146386 41.897937567928466 60.33348097860579 21.299713134765625 65.01922607421875 C-14.729816176684267 73.17925981068151 -50.97604186520141 77.52756262494051 -87.9375 78.25 C-88.69401855468749 78.2665966796875 -89.45053710937498 78.28319335937499 -90.22998046875 78.30029296875 C-101.15038804259393 78.5145223253694 -112.03927136860685 77.86959472422132 -122.9375 77.25 C-123.18722443395953 65.19732766653698 -122.40245489674197 53.320467814602466 -121.4375 41.3125 C-121.29243999179545 39.45381723268099 -121.14790545534177 37.59509337762603 -121.00390625 35.736328125 C-120.65447663654547 31.240390058799846 -120.2979999289312 26.74506338689497 -119.9375 22.25 C-98.28431073732142 12.12638741585289 -75.06004130881018 6.732584607497927 -51.5625 3 C-50.54172363281248 2.8366113281250023 -49.52094726562501 2.6732226562500045 -48.46923828125 2.5048828125 C-32.391106784578994 0.09457638068323604 -16.22266401077445 0.010964309950452389 0 0 Z M-50.947265625 14.935302734375 C-53.79273604068305 15.385230527041244 -56.166690679084354 14.958811686745833 -58.9375 14.25 C-59.86562500000002 14.105624999999975 -60.79374999999999 13.961250000000007 -61.75 13.8125 C-62.47187500000001 13.626874999999984 -63.19375000000002 13.441250000000025 -63.9375 13.25 C-64.10250000000002 12.920000000000016 -64.10250000000002 12.920000000000016 -64.9375 11.25 C-67.2475 11.910000000000025 -69.5575 12.569999999999993 -71.9375 13.25 C-71.9375 13.910000000000025 -71.9375 14.569999999999993 -71.9375 15.25 C-72.70989013671874 15.340717773437518 -73.48228027343748 15.43143554687498 -74.278076171875 15.52490234375 C-83.00503179589111 16.69041066233916 -90.9549439665052 18.972410682648047 -99.25 21.875 C-99.864560546875 22.085117187499975 -99.864560546875 22.085117187499975 -102.974609375 23.1484375 C-105.96572137902618 24.172631493596498 -108.95306189449158 25.206552960639897 -111.9375 26.25 C-112.27711036156447 30.54119369093837 -112.60803239529835 34.83301660902163 -112.9375 39.125 C-113.032890625 40.328984375000005 -113.12828124999999 41.53296875000001 -113.2265625 42.7734375 C-113.74717058351922 49.61571516910993 -114.08017383694954 56.387784758940825 -113.9375 63.25 C-113.2775 62.59000000000003 -112.6175 61.93000000000001 -111.9375 61.25 C-110.94749999999999 61.25 -109.95750000000001 61.25 -108.9375 61.25 C-108.9375 62.24000000000001 -108.9375 63.23000000000002 -108.9375 64.25 C-109.26750000000001 64.41499999999996 -109.26750000000001 64.41499999999996 -110.9375 65.25 C-111.26750000000001 66.24000000000001 -111.5975 67.23000000000002 -111.9375 68.25 C-112.26750000000001 68.41499999999996 -112.26750000000001 68.41499999999996 -113.9375 69.25 C-113.60749999999999 70.24000000000001 -113.2775 71.23000000000002 -112.9375 72.25 C-102.2198719733432 72.37611510400473 -91.57425457463415 72.01177506691948 -80.875 71.4375 C-80.46067718505861 71.41540969848631 -80.46067718505861 71.41540969848631 -78.36395263671875 71.30361938476563 C-43.885157080156546 69.43315359743349 -10.161454966701683 64.37851058937787 23.644378662109375 57.526519775390625 C37.757281724699624 54.6843299117441 51.645489283141956 52.74662160153099 66.0625 52.25 C66.15836385167415 41.67990423155942 66.24047873936343 31.119069876861317 65.625 20.5625 C65.58576416015626 19.863264160156234 65.54652832031252 19.164028320312525 65.506103515625 18.443603515625 C65.31481873909064 15.503104906673627 64.99973584250023 13.061707527500687 64.0625 10.25 C49.21723288176531 8.327631302619238 34.52365567867048 7.814374345000886 19.5625 7.8125 C18.408174743652353 7.81010314941409 17.253849487304706 7.807706298828123 16.064544677734375 7.80523681640625 C-6.789557704396088 7.804842164365027 -28.61759379360535 10.045333039840045 -50.947265625 14.935302734375 Z " fill="#000000"/>
<path d="M0 0 C1.2875528924937782 2.5751057849875565 0.6989989543472745 3.246225595960709 0 6 C-0.7581257365125964 15.979917482288954 -0.2819133938315872 23.71057757232569 6.125 31.625 C10.915910340273172 35.58270854196479 16.072754356857587 39.01752676019987 21.21484375 42.5 C27.728504543479403 47.10081990787029 33.41885996472632 52.9361858201043 35 61 C35.87247200795372 69.60202870341874 34.595098899205624 76.79224245172213 29.6328125 83.98046875 C26.951487994668724 87.21540005618328 23.97968864684782 90.04011526895238 20.83203125 92.8125 C7.139863209664782 104.89600403673558 7.139863209664782 104.89600403673558 5.61328125 114.41015625 C5.376968691884002 119.29123288143057 6.203860714970119 122.89899571528952 9 127 C15.386150607923838 133.5419103788488 23.355982751244653 135.63418946372047 32.0322265625 137.753662109375 C41.55147776994937 140.09122427870716 48.649865938809995 142.43766427728855 55.5625 149.6875 C57.651818036566254 154.5020154755657 57.76240486223071 158.83258926710312 57 164 C54.071694133497886 169.96506750583762 49.91573904219871 173.4445497494387 43.75 175.75 C39.055809883829966 177.20953810334697 34.88953871306646 177.23283517681273 30 177 C30.340312499999982 176.73187499999995 30.340312499999982 176.73187499999995 32.0625 175.375 C34.308483412859374 173.55909851726267 36.540021012142915 171.73411634442414 38.75 169.875 C39.34296875000001 169.37742187499998 39.935937499999994 168.87984374999996 40.546875 168.3671875 C42.69362435761346 166.34739643772923 42.9845339405548 165.13919453500682 43.3125 162.1875 C42.91931640418454 158.1770273226822 41.76683507933694 156.8826991948871 39 154 C36.39843750000006 152.77734375 36.39843750000006 152.77734375 33.375 151.9375 C32.80394531249999 151.77701171875003 32.80394531249999 151.77701171875003 29.9140625 150.96484375 C25.552723389076135 149.85478715458396 21.150949467395492 148.9373403538911 16.75 148 C5.876479430926793 145.6583580185274 -3.3713079697647856 142.5327599573771 -10.31640625 133.23828125 C-14.85124397862289 125.79177649266722 -16.12194596827331 117.98685453658447 -14.53515625 109.51953125 C-11.235003637257293 96.92427423686956 -3.210715953607803 89.11610879121235 7.625 82.5 C13.29899541689096 78.9901498530744 17.061262845423016 75.28742387080445 20.4375 69.5625 C21.53645874533811 64.55613238234866 20.72561113572354 60.514318891944754 18.5625 56 C14.874329084788343 51.68214136755705 10.478083320310219 48.46278214708673 6 45 C-1.0671448651497712 39.271512268009985 -6.056551517808373 34.23138029041024 -8 25 C-8.889168721976532 15.574811547048682 -5.335294233280791 7.549546780689809 0 0 Z " fill="#000000"/>
<path d="M0 0 C0.6599999999999966 0.3299999999999841 1.3199999999999932 0.660000000000025 2 1 C1.7589453125000034 1.4647070312499864 1.7589453125000034 1.4647070312499864 0.5390625 3.81640625 C-0.09928432817739008 5.064937546288149 -0.7372867849601619 6.313644953880328 -1.375 7.5625 C-1.6921093750000011 8.171582031250011 -2.0092187500000023 8.780664062500023 -2.3359375 9.408203125 C-8.147760233182169 20.850229130952357 -9.266190468716246 34.947396779701535 -5.5 47.3125 C-2.2701966984302544 55.47798862861646 2.44374410614148 62.95612557490887 7.12109375 70.35546875 C16.55203991244258 85.27740057980043 22.15923649923971 100.0615685201704 19.375 117.875 C16.417233437310017 130.88917287583598 8.522766991004374 139.63588045956726 -0.7734375 148.67578125 C-1.4386743164062636 149.32764404296876 -2.103911132812499 149.9795068359375 -2.789306640625 150.651123046875 C-4.105988042250658 151.93570964421338 -5.432867225071419 153.20995301728345 -6.771240234375 154.471923828125 C-12.143919087693234 159.68355535493947 -16.26831950316503 165.29311205064073 -16.75 173 C-16.806718749999987 173.763125 -16.863437500000003 174.52625 -16.921875 175.3125 C-16.93476562500001 175.5909375 -16.93476562500001 175.5909375 -17 177 C-20.875 174.375 -20.875 174.375 -22 171 C-22.75489253973629 163.82852087250535 -21.010899956994365 158.96890918331206 -17 153 C-14.783057406756512 150.41755223344825 -12.512293171738605 147.93170238806772 -10.16650390625 145.468505859375 C-1.0791494330204614 135.9063471027116 6.467315522382194 124.87368579073211 6.2109375 111.234375 C5.094162448268975 99.40483185944186 -1.2853209710129079 91.5243663944525 -9.5 83.5625 C-20.133197130385696 73.24459300375025 -25.305894124068345 62.56142252639364 -26.05859375 47.68359375 C-25.780592520248433 30.206583106285166 -17.84359168006796 17.896229865312705 -6 6 C-5.662910156250007 5.655820312499998 -5.662910156250007 5.655820312499998 -3.95703125 3.9140625 C-2.652929672685275 2.594472780436888 -1.3297145507831374 1.2937763196808874 0 0 Z " fill="#000000"/>
<path d="M0 0 C1.0180904792987349 22.85047520203858 -4.974428476126491 43.754949486855196 -20.4375 61.1875 C-21.95154356523193 62.79807654422325 -23.472056332358306 64.40260434746551 -25 66 C-25.306796875000032 66.3441796875 -25.306796875000032 66.3441796875 -26.859375 68.0859375 C-39.61181938968707 81.87383677602918 -58.86642604591168 90.30553572097091 -77 94 C-77.84280517578122 94.17732666015627 -78.6856103515625 94.35465332031248 -79.553955078125 94.537353515625 C-87.43572034800837 96.0368308301139 -95.1870707842142 96.34043807674425 -103.180419921875 96.315673828125 C-105.2998432720292 96.3125188408867 -107.41785760731324 96.33605512140252 -109.537109375 96.361328125 C-133.150991625576 96.47120710250158 -154.89488490865517 88.96169719778499 -171.9453125 72.2578125 C-176.71699147369466 67.3371116970207 -180.43991625590138 61.84595096373681 -184 56 C-184.4395703125 55.28199218750001 -184.879140625 54.56398437500002 -185.33203125 53.82421875 C-190.65375244753585 44.197284898277815 -191.46997325780399 33.79197851253565 -191 23 C-189.845 22.83499999999998 -189.845 22.83499999999998 -184 22 C-183.90203125 22.810820312500027 -183.8040625 23.621640624999998 -183.703125 24.45703125 C-182.09434619471685 36.370315678777786 -178.7029136316424 46.010706383911554 -172 56 C-171.51015625 56.75023437499999 -171.0203125 57.50046874999998 -170.515625 58.2734375 C-158.9557689323828 74.58313541718269 -139.97758256837324 82.32691950289552 -121 86 C-93.43376380835622 90.3214675230011 -64.60317080016864 83.6548017620022 -41.88818359375 67.533203125 C-25.375708498330084 55.22882525956044 -13.81670912572622 37.20268850051491 -10.6494140625 16.734375 C-9.974806801667853 11.833963799652565 -9.453184329217834 6.925398104393594 -9 2 C-7.687862982765466 1.665240669862726 -6.375279128953537 1.3322323278898125 -5.0625 1 C-4.697050781250027 0.9071875000000205 -4.697050781250027 0.9071875000000205 -2.84765625 0.4375 C-1 0 -1 0 0 0 Z " fill="#000000"/>
<path d="M0 0 C2.1816644663372244 2.094975812045732 4.074532163213917 4.190620101556647 5.76953125 6.69921875 C6.202656250000018 7.297343749999982 6.6357812499999795 7.895468749999964 7.08203125 8.51171875 C8.185809971903836 12.023741956057734 7.81651695419248 15.240190031085717 6.76953125 18.69921875 C5.305801246525448 21.12512092359077 3.8298640193515325 22.689137999413106 1.76953125 24.69921875 C1.1095312500000318 24.69921875 0.4495312500000068 24.69921875 -0.23046875 24.69921875 C-0.3284375000000068 24.02374999999995 -0.42640625000001364 23.348281250000014 -0.52734375 22.65234375 C-1.7220278363952275 15.525435234607698 -1.7220278363952275 15.525435234607698 -3.73046875 12.26171875 C-14.153311349404134 5.747442125372345 -27.632491495665022 6.53620957537521 -39.453125 6.3828125 C-40.8079026879048 6.362196331736413 -42.162674620792586 6.341198804019996 -43.51744079589844 6.3198394775390625 C-47.05349006849025 6.26509949486217 -50.58959265505888 6.215481864719436 -54.125732421875 6.1669921875 C-57.745978262845654 6.116422120553921 -61.36614833528466 6.060922935685198 -64.986328125 6.005859375 C-72.06764241038081 5.898867468435583 -79.14902491860943 5.797295973275254 -86.23046875 5.69921875 C-86.23046875 5.369218749999959 -86.23046875 5.039218750000032 -86.23046875 4.69921875 C-83.26046874999997 4.369218749999959 -80.29046875 4.039218750000032 -77.23046875 3.69921875 C-76.10546875 -1.92578125 -76.10546875 -1.92578125 -77.23046875 -5.30078125 C-77.89046875000003 -5.630781250000041 -78.55046875 -5.960781249999968 -79.23046875 -6.30078125 C-79.89046875000003 -7.290781250000009 -80.55046875 -8.280781250000018 -81.23046875 -9.30078125 C-84.05078125 -10.03125 -84.05078125 -10.03125 -87.35546875 -10.48828125 C-87.9033203125 -10.56755859375005 -87.9033203125 -10.56755859375005 -90.67578125 -10.96875 C-91.51882812500003 -11.078320312499955 -92.361875 -11.187890625000023 -93.23046875 -11.30078125 C-93.23046875 -11.630781250000041 -93.23046875 -11.960781249999968 -93.23046875 -12.30078125 C-92.60140625000003 -12.294980468750055 -92.60140625000003 -12.294980468750055 -89.41796875 -12.265625 C-81.31112821349456 -12.214643591496838 -73.25666581162886 -12.216551858976914 -65.16796875 -12.80078125 C-43.590653230916075 -14.27689539013852 -17.46455152230004 -14.937213825195386 0 0 Z " fill="#000000"/>
<path d="M0 0 C0.39537963867189774 0.023565673828102263 0.39537963867189774 0.023565673828102263 2.396240234375 0.142822265625 C2.8232421875 0.1669921875 2.8232421875 0.1669921875 4.984130859375 0.289306640625 C5.433046875000002 0.3173437499999636 5.433046875000002 0.3173437499999636 7.704833984375 0.459228515625 C8.606533203125025 0.5114355468749636 9.508232421874993 0.5636425781250409 10.437255859375 0.617431640625 C12.672599483892895 0.7475310050149346 14.907542881468771 0.8825078804530904 17.142333984375 1.021728515625 C17.142333984375 2.011728515625009 17.142333984375 3.001728515625018 17.142333984375 4.021728515625 C15.822333984375007 4.021728515625 14.502333984375014 4.021728515625 13.142333984375 4.021728515625 C13.227976074218759 4.847856445312459 13.313618164062518 5.673984375000032 13.40185546875 6.525146484375 C13.72442666580639 9.637599155499515 14.046835697711629 12.750068573471026 14.369140625 15.862548828125 C14.575317306664374 17.853121379257914 14.781675179217018 19.84367516060854 14.988037109375 21.834228515625 C15.71912482446902 28.895465958972295 16.443384278942062 35.95723238709104 17.142333984375 43.021728515625 C18.792333984374977 42.03172851562499 20.44233398437501 41.04172851562498 22.142333984375 40.021728515625 C21.812333984375016 35.731728515625036 21.482333984375032 31.44172851562496 21.142333984375 27.021728515625 C21.802333984374968 27.021728515625 22.462333984374993 27.021728515625 23.142333984375 27.021728515625 C22.97733398437498 26.03172851562499 22.97733398437498 26.03172851562499 22.142333984375 21.021728515625 C24.845674554949767 23.72506908619971 25.380978192191606 26.74090820515437 26.329833984375 30.334228515625 C26.51997070312501 30.998740234374964 26.710107421875023 31.66325195312504 26.906005859375 32.347900390625 C27.95360742501532 36.25611139749719 28.698129053309287 39.23290993598505 27.142333984375 43.021728515625 C25.283371873331475 45.386334394671394 23.187074792551357 47.44359898601613 21.017333984375 49.521728515625 C20.46045898437501 50.07731445312504 19.903583984375018 50.63290039062497 19.329833984375 51.205322265625 C15.52653131270381 54.929754605395146 11.53920753925496 58.0233516385058 7.142333984375 61.021728515625 C3.0202838413175073 57.53999684139194 -1.0732686970143845 54.02940626519944 -5.143310546875 50.487060546875 C-6.53793922949734 49.29501250456519 -7.971876804145268 48.14907182171521 -9.416259765625 47.017822265625 C-11.317418864627427 45.43033529160891 -12.672688500650054 44.1966255184185 -13.857666015625 42.021728515625 C-14.035884178356184 38.4441639156139 -12.944956767561393 35.40139060289391 -11.857666015625 32.021728515625 C-11.249248543114902 29.647813913063374 -10.645416805138382 27.272721224115458 -10.045166015625 24.896728515625 C-8.52087622470566 19.280924022764225 -6.890617780349487 13.70549627636808 -5.170166015625 8.146728515625 C-4.955778808593777 7.450473632812532 -4.741391601562498 6.75421874999995 -4.5205078125 6.036865234375 C-2.6303131116234795 0.030765917588951197 -2.6303131116234795 0.030765917588951197 0 0 Z " fill="#000000"/>
<path d="M0 0 C0.6985913085937341 0.27150878906252274 1.397182617187525 0.5430175781250455 2.116943359375 0.82275390625 C15.676503159637775 6.085337433887503 29.239141934589725 11.285277041656059 43 16 C40.00079545861183 19.33354209682159 36.38142896038096 21.102307482871765 32.47265625 23.20703125 C27.22305036353248 27.013617508907714 25.059571001946892 32.765105750767134 22.8125 38.625 C22.552753906250018 39.279843750000055 22.29300781249998 39.934687499999995 22.025390625 40.609375 C20.813833822102595 43.70244508078213 19.685669157023597 46.74513677268328 19 50 C16.027413201527395 48.63152883191242 13.64988222915099 47.04330556394814 11.13671875 44.953125 C10.414199218750014 44.35500000000002 9.691679687500027 43.756875000000036 8.947265625 43.140625 C8.201542968750005 42.516718749999995 7.455820312500009 41.89281249999999 6.6875 41.25 C6.3204394531250045 40.94578124999998 6.3204394531250045 40.94578124999998 4.462890625 39.40625 C-0.06264273827139277 35.64768812952798 -4.542652748128489 31.839089046526055 -9 28 C-6.902459073316038 18.28507360272704 -3.6175505929423366 9.225339376176635 0 0 Z " fill="#000000"/>
<path d="M0 0 C2.80184920379412 5.913826754573051 5.443034089987009 11.630594004492195 7 18 C6.734453125000016 17.78923828125005 6.734453125000016 17.78923828125005 5.390625 16.72265625 C4.684218750000014 16.1748046875 3.9778125000000273 15.626953125 3.25 15.0625 C2.9019531249999773 14.78986328124995 2.9019531249999773 14.78986328124995 1.140625 13.41015625 C-1.0871773378581224 11.942571133272281 -2.3684745584599796 11.329236756412342 -5 11 C-7.3115234375 11.861083984375 -7.3115234375 11.861083984375 -9.859375 13.24609375 C-10.330567626953098 13.49786376953125 -10.330567626953098 13.49786376953125 -12.715087890625 14.77197265625 C-13.716608886718745 15.321596679687445 -14.718129882812491 15.871220703125005 -15.75 16.4375 C-17.847176112119314 17.559491664055145 -19.944833791353915 18.680583662625168 -22.04296875 19.80078125 C-23.06696777343751 20.352016601562468 -24.090966796875023 20.90325195312505 -25.14599609375 21.47119140625 C-35.10849602924327 26.807818831062605 -45.293681736819224 31.659251156243954 -55.5625 36.375 C-56.026925048828105 36.589709472656295 -56.026925048828105 36.589709472656295 -58.377197265625 37.67626953125 C-63.19936134316936 39.86780410884296 -67.85842132563982 41.71636856140799 -73 43 C-72.2265625 44.06476562499995 -71.453125 45.129531250000014 -70.65625 46.2265625 C-65.58544816764771 53.26667107193805 -60.57924010856766 60.32344871707812 -56.1875 67.8125 C-55.54167968749999 68.91207031249996 -54.895859374999986 70.01164062500004 -54.23046875 71.14453125 C-53 74 -53 74 -53.11328125 76.26171875 C-54 78 -54 78 -57 80 C-57.99000000000001 80 -58.98000000000002 80 -60 80 C-61.39111328125 78.41455078125 -61.39111328125 78.41455078125 -62.8203125 76.1953125 C-63.35116455078128 75.38868164062501 -63.8820166015625 74.58205078125002 -64.428955078125 73.7509765625 C-64.98864990234375 72.884404296875 -65.5483447265625 72.01783203125001 -66.125 71.125 C-72.62226537498003 61.35426874811901 -79.34182484550496 52.96323406923216 -88.37109375 45.375 C-90 44 -90 44 -92 42 C-91.29544677734373 41.70794677734375 -90.59089355468751 41.4158935546875 -89.864990234375 41.114990234375 C-61.863465594193826 29.480988110773637 -34.117002431653646 17.337852497009408 -7.454345703125 2.843017578125 C-2.1970915430227365 0 -2.1970915430227365 0 0 0 Z " fill="#000000"/>
<path d="M0 0 C0.7199414062499727 -0.00386718749996362 1.4398828125000023 -0.007734375000040927 2.181640625 -0.01171875 C5.364586385757605 -0.005807987213074739 7.896978620969264 0.11149287365640248 10.9375 1.125 C10.317689698742583 8.190837434334412 9.009221092952316 15.030983866701717 7.55859375 21.96484375 C6.9375 25.125 6.9375 25.125 6.9375 27.125 C7.597500000000025 27.45500000000004 8.257499999999993 27.784999999999968 8.9375 28.125 C6.37435501235808 28.206321873873435 3.813815818005196 28.265641747451582 1.25 28.3125 C0.5287695312500205 28.33763671874999 -0.19246093750001592 28.362773437499982 -0.935546875 28.388671875 C-5.5309180411125 28.451622164946798 -8.500669401332857 28.105043386543684 -12.0625 25.125 C-13.609375 22.75 -13.609375 22.75 -14.8125 20.125 C-15.219843749999995 19.258749999999964 -15.627187499999991 18.39250000000004 -16.046875 17.5 C-18.092598723119977 12.716153755165578 -18.146643592552095 9.257759145677824 -18.0625 4.125 C-11.696548348881493 0.7973434550971206 -7.159245439431231 -0.03866379175212842 0 0 Z " fill="#000000"/>
<path d="M0 0 C2.6792734148823456 4.018910122323518 2.156012484381108 6.241619226376201 2 11 C2.6599999999999966 10.009999999999991 3.319999999999993 9.019999999999982 4 8 C5.319999999999993 8.660000000000025 6.639999999999986 9.319999999999993 8 10 C7.6699999999999875 10.990000000000009 7.340000000000003 11.980000000000018 7 13 C7.360937500000006 13.041249999999991 7.360937500000006 13.041249999999991 9.1875 13.25 C12.618927009412886 14.165047202510095 14.338818655586778 15.671466323638413 17 18 C17.928124999999994 18.742500000000007 18.85624999999999 19.485000000000014 19.8125 20.25 C20.53437500000001 20.827499999999986 21.256249999999994 21.404999999999973 22 22 C20.125 22.625 20.125 22.625 18 23 C17.340000000000003 22.339999999999975 16.680000000000007 21.680000000000007 16 21 C15.670000000000016 23.639999999999986 15.340000000000003 26.279999999999973 15 29 C15.659999999999997 29.329999999999984 16.319999999999993 29.660000000000025 17 30 C16.670000000000016 34.620000000000005 16.340000000000003 39.24000000000001 16 44 C10.389999999999986 44 4.780000000000001 44 -1 44 C-1.0518835219901916 34.02539289738661 -0.8619613273744449 24.093610610663973 -0.5 14.125 C-0.4516003073781576 12.743497364290931 -0.4034222741129838 11.361986944683736 -0.35546875 9.98046875 C-0.23914338073325325 6.653563188971191 -0.12062283188598144 3.3267520389828746 0 0 Z " fill="#000000"/>
<path d="M0 0 C2.3100000000000023 0 4.6200000000000045 0 7 0 C7 1.9800000000000182 7 3.9599999999999795 7 6 C6.009999999999991 6 5.019999999999982 6 4 6 C3.1248961657231007 11.478591231397218 2.7097596638431014 16.89857798640469 2.4375 22.4375 C2.3943164062500273 23.264433593750027 2.3511328124999977 24.091367187499998 2.306640625 24.943359375 C2.2016196710285953 26.962095490228307 2.1004144054629705 28.98102950718055 2 31 C3.980000000000018 31.329999999999984 5.9599999999999795 31.660000000000025 8 32 C8.329999999999984 30.680000000000007 8.660000000000025 29.360000000000014 9 28 C9 34.26999999999998 9 40.54000000000002 9 47 C4.304463836681293 48.87821446532746 1.908692666402203 49.370467371049244 -3 49 C-5 47 -5 47 -5.08203125 43.81640625 C-5.005342545527242 42.39766521725409 -4.914257805521061 40.97966358420831 -4.8125 39.5625 C-4.763515625000025 38.79421875000003 -4.714531249999993 38.0259375 -4.6640625 37.234375 C-4.132462227332553 29.638397770551933 -3.325131769294387 22.0688136914398 -2.5 14.5 C-2.4347814941406227 13.90030395507813 -2.4347814941406227 13.90030395507813 -2.104736328125 10.865478515625 C-1.9773608398437545 9.744558105468741 -1.849985351562509 8.623637695312482 -1.71875 7.46875 C-1.661708984375025 6.9656933593749955 -1.661708984375025 6.9656933593749955 -1.373046875 4.419921875 C-1 2 -1 2 0 0 Z " fill="#000000"/>
<path d="M0 0 C-0.660000000000025 1.6500000000000057 -1.3199999999999932 3.3000000000000114 -2 5 C-2.660000000000025 5 -3.319999999999993 5 -4 5 C-4.660000000000025 6.319999999999993 -5.319999999999993 7.639999999999986 -6 9 C-6.660000000000025 9 -7.319999999999993 9 -8 9 C-8 11.310000000000002 -8 13.620000000000005 -8 16 C-7.009999999999991 16.329999999999984 -6.019999999999982 16.660000000000025 -5 17 C-4.009999999999991 17.660000000000025 -3.019999999999982 18.319999999999993 -2 19 C-2 19.99000000000001 -2 20.980000000000018 -2 22 C-1.339999999999975 22.329999999999984 -0.6800000000000068 22.660000000000025 0 23 C-1.375 24.5 -1.375 24.5 -3 26 C-3.660000000000025 26 -4.319999999999993 26 -5 26 C-4 29 -4 29 -2 31 C-11.96754563894524 30.382352941176464 -11.96754563894524 30.382352941176464 -15 27 C-16.66941745858645 24.032146740290727 -17.923840832878284 21.228477501365205 -19 18 C-19.660000000000025 18 -20.319999999999993 18 -21 18 C-20.972070289289093 11.841498788242262 -20.031291343076305 7.852328646577121 -15.66796875 3.375 C-10.943823694990954 -0.519377188204146 -5.794206637563491 -0.19980022888148596 0 0 Z " fill="#000000"/>
<path d="M0 0 C3.538699402430325 1.6513930544674622 4.810701529310734 2.716052293966129 7 6 C7.576096822995453 11.102571860816909 7.576096822995453 11.102571860816909 7 14 C4.5625 16.9375 4.5625 16.9375 2 19 C1.670000000000016 19.329999999999984 1.339999999999975 19.660000000000025 1 20 C-3.692030616972545 20.678599469396886 -7.0004832609755 20.666344492683038 -11 18 C-13.443435086886552 14.334847369670229 -14.613596698975812 11.424809998248293 -14 7 C-10.595611695987145 0.8053483409335058 -6.799832458177207 -0.4610055903849002 0 0 Z " fill="#000000"/>
<path d="M0 0 C3.4387387821915354 2.0775713475740645 5.782912256789928 4.105319221727655 7 8 C7 10.0625 7 10.0625 6 12 C1.1717669512593147 15.379763134118491 -3.324333523517282 15.680334405226972 -9 15 C-13.733527500218997 14.035347476258664 -17.059999638270426 13.224848956193057 -20.0625 9.3125 C-20.217187500000023 8.930937500000027 -20.217187500000023 8.930937500000027 -21 7 C-20.339999999999975 6.670000000000016 -19.680000000000007 6.339999999999975 -19 6 C-19 5.339999999999975 -19 4.680000000000007 -19 4 C-18.339999999999975 4 -17.680000000000007 4 -17 4 C-17 3.339999999999975 -17 2.680000000000007 -17 2 C-11.148599363540882 -1.1801090415538624 -6.500505859610769 -1.6306353681735573 0 0 Z " fill="#000000"/>
<path d="M0 0 C3.8757510790456706 -0.10816049522918547 7.748469590369268 -0.1874031998445389 11.625 -0.25 C12.172207031249997 -0.26675781250003183 12.172207031249997 -0.26675781250003183 14.94140625 -0.3515625 C21.090717469545496 -0.4260996056914337 25.313465405905532 -0.4590329147695229 30 4 C30.99000000000001 5.649999999999977 31.97999999999999 7.2999999999999545 33 9 C23.75999999999999 9.330000000000041 14.52000000000001 9.659999999999968 5 10 C3.3499999999999943 6.7000000000000455 1.6999999999999886 3.3999999999999773 0 0 Z " fill="#000000"/>
<path d="M0 0 C1.9800000000000182 0 3.9599999999999795 0 6 0 C6.329999999999984 0.660000000000025 6.660000000000025 1.3199999999999932 7 2 C7.660000000000025 2.329999999999984 8.319999999999993 2.660000000000025 9 3 C9 3.990000000000009 9 4.980000000000018 9 6 C9.660000000000025 6.329999999999984 10.319999999999993 6.660000000000025 11 7 C9.625 8.5 9.625 8.5 8 10 C7.339999999999975 10 6.680000000000007 10 6 10 C7 13 7 13 9 15 C1.0742966402622187 14.508877355913683 1.0742966402622187 14.508877355913683 -2.375 12.875 C-4.723562162354483 10.165120581898691 -5.735248153075304 7.351592394350405 -7 4 C-6.030624999999986 3.711250000000007 -5.061249999999973 3.4225000000000136 -4.0625 3.125 C-1 2 -1 2 0 0 Z " fill="#000000"/>
<path d="M0 0 C3.6902648436001186 0.6326168303314716 6.427258974982465 1.5709035899930086 10 3 C10 13.560000000000002 10 24.120000000000005 10 35 C9.670000000000016 35 9.339999999999975 35 9 35 C8.670000000000016 28.730000000000018 8.339999999999975 22.45999999999998 8 16 C7.009999999999991 16.660000000000025 6.019999999999982 17.319999999999993 5 18 C4.974218749999977 17.08476562499999 4.948437500000011 16.169531249999977 4.921875 15.2265625 C4.865156249999984 14.03804687500002 4.808437500000025 12.849531249999984 4.75 11.625 C4.703593749999982 10.441640624999991 4.6571875000000205 9.258281249999982 4.609375 8.0390625 C4 5 4 5 1.953125 3.5859375 C1.30859375 3.392578125 0.6640625 3.19921875 0 3 C0.660000000000025 3 1.3199999999999932 3 2 3 C2 2.339999999999975 2 1.6800000000000068 2 1 C1.339999999999975 0.6700000000000159 0.6800000000000068 0.339999999999975 0 0 Z " fill="#000000"/>
<path d="M0 0 C8.854979599499359 -0.44274897997502194 17.85609503690256 0.3799249183791744 25 6 C21.58378212356098 6.14539952983796 18.168360088513282 6.234097245676253 14.75 6.3125 C13.781914062499993 6.354394531250023 12.813828124999986 6.3962890625000455 11.81640625 6.439453125 C4.6129367230802245 6.563650875464077 4.6129367230802245 6.563650875464077 1.328125 3.54296875 C0 1 0 1 0 0 Z " fill="#000000"/>
<path d="M0 0 C2.375 0.1875 2.375 0.1875 5 1 C6.5 3.25 6.5 3.25 7 6 C5.882367928628781 8.341705292396796 4.836756394276591 10.163243605723437 3 12 C-2.529411764705884 12.235294117647072 -2.529411764705884 12.235294117647072 -5 11 C-5 10.340000000000032 -5 9.67999999999995 -5 9 C-4.680312500000014 8.907187499999964 -4.680312500000014 8.907187499999964 -3.0625 8.4375 C-1 7 -1 7 -0.25 3.375 C-0.16749999999998977 2.261250000000018 -0.08500000000000796 1.1475000000000364 0 0 Z " fill="#000000"/>
<path d="M0 0 C1.350155423220258 2.700310846440516 0.9872963885868558 4.740456785872311 0.875 7.75 C0.8280374282502976 12.651718426375567 1.217105919610816 15.82565887941621 4 20 C4.659999999999997 20.99000000000001 5.319999999999993 21.980000000000018 6 23 C1.5216648146288492 21.592523227454762 -1.2184323785784272 19.81472130937817 -4 16 C-4.9546724254875585 11.07026911321509 -4.819470615619281 6.6294699970455895 -2 2.375 C-1.3400000000000034 1.5912500000000023 -0.6800000000000068 0.8075000000000045 0 0 Z " fill="#000000"/>
<path d="M0 0 C0.9900000000000091 0 1.9800000000000182 0 3 0 C3.512112809488201 6.4014101186024845 3.1188849383460706 9.980108981390742 -1 15 C-1.990000000000009 14.670000000000016 -2.980000000000018 14.339999999999975 -4 14 C-3.958750000000009 13.216250000000002 -3.917500000000018 12.432500000000005 -3.875 11.625 C-4 9 -4 9 -6 7 C-5.339999999999975 7 -4.680000000000007 7 -4 7 C-4 6.339999999999975 -4 5.680000000000007 -4 5 C-3.0214980514335252 3.9789544884523593 -2.020195733125945 2.9793879038009266 -1 2 C-0.6700000000000159 1.3400000000000034 -0.339999999999975 0.6800000000000068 0 0 Z " fill="#000000"/>
<path d="M0 0 C1.875 0.75 1.875 0.75 2.875 1.75 C3.0625 4.1875 3.0625 4.1875 2.875 6.75 C2.214999999999975 7.410000000000025 1.5550000000000068 8.069999999999993 0.875 8.75 C-1.75 8.375 -1.75 8.375 -4.125 7.75 C-4.8125 5.4375 -4.8125 5.4375 -5.125 2.75 C-3.5741351852483945 0.3012660819711641 -2.9256979133540426 -0.34419975451226037 0 0 Z " fill="#000000"/>
<path d="M0 0 C1.4601529127514823 0.282416406993093 2.9180979322652547 0.5762661375307516 4.375 0.875 C5.187109374999977 1.0374218750000068 5.999218750000011 1.1998437500000136 6.8359375 1.3671875 C9 2 9 2 11 4 C9.4375 4.75 9.4375 4.75 7 5 C4.497135913494674 3.8691556268680642 2.3299227828212565 2.4786048429442644 0 1 C0 0.6700000000000159 0 0.339999999999975 0 0 Z " fill="#000000"/>
</g>
</svg>
