<?xml version="1.0" standalone="no"?>
<!DOCTYPE svg PUBLIC "-//W3C//DTD SVG 20010904//EN"
 "http://www.w3.org/TR/2001/REC-SVG-20010904/DTD/svg10.dtd">
<svg version="1.0" xmlns="http://www.w3.org/2000/svg"
 width="627.000000pt" height="739.000000pt" viewBox="0 0 627.000000 739.000000"
 preserveAspectRatio="xMidYMid meet">
<metadata>
Created by potrace 1.16, written by Peter Selinger 2001-2019
</metadata>
<g transform="translate(0.000000,739.000000) scale(0.100000,-0.100000)"
fill="#6a9955" stroke="none">
<path d="M3498 7274 c-80 -19 -133 -48 -195 -106 -65 -62 -98 -118 -119 -200
-20 -76 -14 -190 12 -261 30 -79 108 -168 188 -214 15 -9 -3 -198 -59 -653
-14 -113 -25 -215 -25 -227 0 -13 -26 -46 -70 -89 -39 -37 -84 -89 -101 -115
-34 -54 -10 -47 -264 -74 -360 -38 -808 -159 -961 -261 -29 -19 -71 -52 -93
-72 l-41 -37 -10 -215 c-11 -229 -14 -663 -4 -672 3 -3 26 2 52 12 l47 18 7
188 c4 104 12 281 17 394 l10 205 43 39 c54 48 145 94 279 141 123 43 383 107
524 128 55 9 118 19 140 22 245 37 940 57 1287 36 626 -38 1200 -181 1368
-341 l37 -35 6 -130 c4 -71 13 -240 21 -375 8 -135 17 -297 20 -360 3 -63 9
-172 12 -242 l7 -127 -40 -10 c-101 -27 -192 -131 -240 -274 -25 -76 -27 -94
-27 -247 0 -139 4 -178 22 -245 55 -198 160 -328 285 -350 l37 -7 0 -87 c0
-47 7 -327 15 -621 8 -294 15 -628 15 -741 l0 -206 -28 -39 c-95 -131 -224
-219 -454 -312 -188 -76 -260 -95 -544 -146 -312 -56 -584 -78 -954 -77 -382
1 -601 19 -927 77 -212 37 -372 80 -502 135 -161 68 -255 126 -329 202 l-62
65 0 295 0 295 -27 7 c-21 6 16 16 152 40 273 50 417 91 525 151 44 25 47 25
192 18 l148 -7 0 69 c0 105 -11 174 -26 174 -8 0 -14 -7 -14 -15 0 -31 -82
-105 -156 -140 -258 -122 -694 -187 -1470 -216 -352 -13 -393 -10 -490 37
-103 51 -172 160 -181 289 -14 205 132 366 356 391 111 13 92 27 -36 28 -26 0
-28 11 -10 43 17 30 47 52 151 109 95 52 163 111 192 165 14 25 19 56 19 114
0 70 -4 87 -29 133 -16 29 -81 105 -146 170 -64 64 -124 134 -134 155 -26 57
-32 136 -12 193 21 62 21 62 -10 33 -66 -60 -83 -173 -40 -265 15 -32 62 -92
125 -158 112 -118 133 -155 134 -236 0 -102 -49 -171 -194 -270 -103 -71 -166
-131 -175 -167 -8 -30 -84 -73 -84 -48 0 29 31 90 63 123 18 19 68 60 112 92
181 131 237 234 190 348 -42 99 -118 141 -427 237 -148 46 -212 121 -212 250
0 59 5 81 34 140 35 73 70 111 323 350 88 83 111 111 136 166 42 93 57 184 41
262 -24 124 -86 191 -280 302 -133 76 -173 114 -218 205 -26 52 -27 63 -26
193 0 75 -1 137 -2 137 -2 0 -19 -28 -38 -62 -64 -117 -81 -225 -52 -336 29
-109 96 -191 230 -282 153 -102 195 -162 182 -253 -15 -98 -59 -151 -241 -287
-151 -113 -237 -201 -299 -306 -60 -103 -80 -179 -74 -291 5 -108 34 -178 104
-254 87 -92 165 -125 395 -164 83 -14 171 -34 194 -20 56 -25 81 -68 65 -114
-17 -49 -47 -80 -141 -139 -91 -59 -146 -116 -178 -189 -24 -52 -27 -132 -7
-171 13 -24 12 -31 -5 -65 -53 -103 -62 -240 -25 -359 38 -120 140 -231 253
-274 84 -32 161 -39 418 -40 207 0 326 6 538 26 l67 7 0 -351 0 -351 57 -67
c222 -261 708 -424 1416 -474 258 -18 854 -16 1037 4 435 48 732 110 978 207
239 94 424 229 524 382 l40 62 -6 315 c-4 173 -9 371 -11 440 -6 145 -25 813
-25 875 l0 42 63 23 c88 32 141 72 198 149 93 126 128 284 109 486 -19 208
-81 347 -209 476 -70 69 -101 91 -174 118 -26 10 -27 13 -27 83 -1 124 -43
843 -61 1043 -12 129 -12 130 -48 168 -175 185 -723 337 -1351 376 -106 6
-145 12 -149 22 -7 21 -99 115 -151 155 l-47 36 -21 161 c-12 89 -29 212 -37
272 -9 61 -24 178 -35 260 -12 83 -23 164 -25 180 -4 27 -1 33 30 49 49 26
118 103 149 165 15 28 31 85 38 126 48 308 -233 555 -544 479z m259 -135 c73
-35 135 -100 157 -166 20 -60 20 -166 0 -226 -21 -62 -91 -138 -154 -168 l-51
-24 6 -55 c4 -30 17 -145 30 -255 13 -110 29 -247 35 -305 23 -207 51 -395 63
-410 7 -8 29 -33 49 -55 45 -49 78 -91 78 -99 0 -3 -40 -6 -88 -6 l-88 0 -44
45 -44 45 -119 0 -118 0 -48 -45 c-44 -41 -54 -46 -112 -51 -74 -8 -77 -20 28
101 l60 70 17 165 c9 91 30 282 46 425 16 143 32 298 35 345 l6 85 -61 39
c-109 69 -153 149 -153 276 0 84 31 156 88 209 113 104 248 125 382 60z m2073
-3607 c157 -115 249 -395 206 -630 -26 -147 -105 -277 -183 -303 -99 -32 -210
14 -280 119 -66 98 -94 200 -100 362 -8 211 26 337 115 423 74 72 169 83 242
29z"/>
<path d="M3475 7071 c-45 -27 -83 -77 -91 -117 -20 -107 43 -193 149 -202 109
-9 182 61 182 175 0 69 -17 101 -75 141 -42 28 -122 30 -165 3z"/>
<path d="M3556 6493 c-3 -27 -10 -133 -16 -238 -6 -104 -18 -293 -26 -420 -8
-126 -14 -244 -14 -262 l0 -33 86 1 87 2 -7 286 c-9 400 -16 597 -22 659 l-5
52 -39 0 c-38 0 -38 0 -44 -47z"/>
<path d="M5677 3336 c-53 -49 -68 -100 -68 -234 0 -203 89 -349 188 -307 66
28 105 183 84 333 -25 180 -125 281 -204 208z"/>
<path d="M929 5797 c-218 -186 -330 -360 -384 -595 -38 -160 -26 -298 34 -425
42 -87 148 -187 261 -246 235 -122 310 -213 310 -376 0 -153 -71 -283 -265
-485 -56 -58 -126 -136 -158 -174 -134 -164 -164 -331 -75 -432 32 -36 115
-90 124 -81 3 3 -1 18 -9 34 -29 56 -41 137 -28 188 26 104 62 155 246 345
150 155 228 250 278 336 125 214 148 445 60 624 -43 89 -132 182 -238 249
-146 93 -179 118 -221 169 -104 128 -120 299 -48 519 33 101 111 262 167 346
25 37 40 67 33 67 -7 0 -46 -29 -87 -63z"/>
<path d="M3395 5099 c-235 -6 -388 -18 -515 -39 -231 -38 -390 -74 -542 -121
-100 -31 -305 -112 -319 -126 -4 -4 -11 -162 -15 -350 l-7 -343 57 0 56 0 1
113 c1 61 4 202 8 311 l6 200 75 27 c41 15 81 28 88 28 9 1 12 -72 12 -333 0
-184 3 -337 8 -339 4 -3 51 -2 105 0 l97 6 0 368 0 369 28 6 c15 3 43 10 62
15 806 196 2047 142 2657 -116 l91 -39 6 -65 c3 -37 10 -228 16 -426 12 -428
17 -545 23 -551 3 -3 25 5 51 18 40 19 46 26 46 52 0 43 -30 754 -38 911 l-7
130 -50 27 c-248 136 -763 243 -1290 268 -216 10 -324 10 -710 -1z"/>
<path d="M4069 4056 c-2 -2 -281 -6 -619 -10 -338 -3 -759 -11 -935 -17 -176
-6 -363 -9 -415 -6 -105 6 -230 -6 -302 -29 -62 -20 -203 -106 -251 -152 -58
-56 -146 -194 -173 -270 -67 -194 -57 -405 27 -563 73 -135 233 -267 399 -327
209 -75 329 -86 805 -71 279 8 492 8 870 -1 608 -15 681 -9 905 68 185 64 340
206 419 384 53 120 65 180 65 338 0 120 -4 159 -23 225 -60 216 -219 374 -418
419 -64 14 -341 24 -354 12z m346 -171 c28 -10 63 -27 79 -36 50 -30 123 -107
144 -153 71 -150 79 -367 21 -549 -56 -177 -240 -318 -479 -368 -120 -25 -195
-27 -1015 -20 -269 3 -605 1 -745 -3 -275 -9 -374 0 -514 46 -226 74 -378 237
-416 446 -32 176 72 420 224 524 130 90 132 90 616 99 234 5 721 12 1082 17
362 5 660 11 662 13 3 2 69 4 148 4 118 0 152 -3 193 -20z"/>
<path d="M3349 3742 c-93 -60 -169 -172 -185 -272 l-7 -40 490 0 c269 0 565 3
658 7 l167 6 -6 43 c-11 81 -54 170 -107 219 -26 25 -60 50 -74 55 -16 6 -199
10 -459 10 l-432 0 -45 -28z"/>
<path d="M2185 3751 c-140 -6 -153 -8 -197 -33 -82 -49 -177 -178 -194 -266
l-6 -32 234 0 c129 0 405 3 612 7 l378 6 -4 61 c-5 75 -50 178 -102 229 l-37
37 -267 -2 c-147 -1 -334 -4 -417 -7z"/>
<path d="M3988 3323 c-10 -2 -18 -9 -18 -15 0 -42 -93 -108 -152 -108 -65 1
-158 63 -158 106 0 12 -45 14 -250 14 -287 0 -265 10 -230 -102 36 -117 127
-230 236 -294 93 -55 180 -77 324 -81 145 -5 221 6 330 49 146 57 287 186 346
314 19 40 35 83 37 96 l2 23 -225 1 c-124 1 -233 0 -242 -3z"/>
<path d="M1792 3271 c8 -79 68 -193 140 -265 73 -72 146 -115 249 -148 62 -19
95 -23 209 -23 114 0 146 4 205 23 160 53 282 160 355 308 23 47 44 100 47
119 l6 35 -245 0 -244 0 -13 -35 c-23 -65 -103 -104 -174 -84 -46 12 -103 61
-111 94 l-6 25 -211 0 -212 0 5 -49z"/>
<path d="M4610 4043 c0 -5 34 -31 74 -57 101 -63 160 -131 213 -243 24 -51 47
-93 52 -93 14 0 20 52 11 105 -14 78 -13 79 36 43 70 -50 139 -131 165 -192
12 -30 27 -53 32 -49 5 3 6 33 2 72 -12 119 -93 244 -189 293 -21 11 -56 32
-77 48 -59 43 -319 102 -319 73z"/>
<path d="M5025 3050 c-42 -69 -133 -155 -206 -194 -28 -16 -101 -46 -162 -67
-157 -55 -167 -69 -46 -70 193 -1 369 98 440 246 28 59 40 145 20 145 -5 0
-26 -27 -46 -60z"/>
<path d="M1780 2380 l0 -210 50 0 50 0 0 194 0 194 -47 16 c-26 9 -48 16 -50
16 -2 0 -3 -94 -3 -210z"/>
<path d="M2020 2346 l0 -186 40 0 c23 0 59 9 82 21 22 11 84 30 137 41 174 36
791 35 1446 -3 216 -13 489 -56 617 -99 234 -78 379 -212 418 -385 23 -103
-32 -232 -138 -326 -98 -87 -320 -174 -517 -204 -184 -28 -571 -39 -953 -26
-191 6 -399 18 -462 26 -63 8 -123 14 -132 15 -17 0 -18 -20 -20 -262 l-2
-263 -6 265 -5 264 -108 26 c-59 15 -109 24 -112 22 -3 -3 -5 -113 -5 -244 0
-131 -3 -238 -6 -238 -8 0 -103 55 -125 73 -14 10 -18 48 -24 245 -4 128 -11
234 -15 237 -4 3 -29 2 -54 -1 l-46 -7 0 -156 c0 -86 3 -206 7 -268 l6 -112
52 -35 c87 -57 168 -94 323 -146 192 -64 391 -103 683 -136 208 -23 277 -26
614 -27 389 -1 522 7 820 50 151 22 349 72 475 122 101 39 208 97 198 107 -3
2 -47 -7 -99 -21 -402 -106 -932 -175 -1350 -175 l-146 0 -7 31 c-3 17 -6 137
-6 265 l0 234 138 0 c453 0 821 100 1007 273 159 148 206 357 119 536 -36 75
-159 196 -244 241 -127 68 -287 127 -394 146 -17 3 -49 9 -71 14 -84 18 -456
59 -541 60 -20 0 -22 7 -26 80 -3 44 -8 83 -11 87 -9 8 -1266 7 -1274 -1 -3
-2 -8 -43 -10 -90 l-6 -86 -41 -11 c-23 -5 -49 -12 -58 -15 -10 -2 -27 -7 -38
-10 -19 -5 -20 -1 -20 105 0 60 -4 112 -9 115 -5 4 -30 9 -55 12 l-46 7 0
-187z"/>
<path d="M5418 2482 c-4 -7 4 -609 17 -1299 5 -282 11 -393 19 -393 6 0 34 22
62 48 l52 47 -9 265 c-12 374 -39 1252 -39 1273 0 9 -6 17 -13 17 -7 0 -29 11
-49 25 -20 14 -38 22 -40 17z"/>
<path d="M2505 2163 c-100 -5 -225 -24 -219 -34 3 -5 18 -9 34 -9 55 0 265
-61 348 -101 46 -22 103 -60 129 -84 77 -74 83 -68 83 85 0 118 -2 130 -19
140 -18 9 -203 11 -356 3z"/>
<path d="M2952 2031 c3 -72 7 -133 9 -135 2 -3 125 -8 272 -12 l267 -7 0 119
c0 65 -4 124 -8 130 -10 15 -90 22 -336 30 l-209 7 5 -132z"/>
<path d="M3577 2134 c-9 -10 -9 -242 1 -247 4 -3 125 -8 270 -12 l262 -8 0
106 c0 58 -4 108 -9 111 -33 21 -508 66 -524 50z"/>
<path d="M1143 2103 c-13 -2 -23 -6 -23 -7 0 -1 20 -23 44 -49 25 -25 57 -73
72 -106 l28 -61 291 -1 c181 -1 267 -5 230 -9 -33 -4 -162 -8 -287 -9 l-228
-1 0 -51 0 -51 108 7 c59 4 195 13 302 19 l195 11 3 27 c6 51 -17 106 -70 163
-69 76 -119 103 -209 115 -72 9 -412 12 -456 3z"/>
<path d="M900 2090 c0 -6 11 -15 24 -20 69 -26 166 -156 188 -251 7 -29 17
-49 25 -49 31 0 -3 -137 -49 -195 -30 -38 -16 -41 35 -7 70 49 101 113 100
212 -1 114 -53 218 -141 286 -41 31 -51 34 -113 34 -41 0 -69 -4 -69 -10z
m270 -229 c0 -6 -10 -8 -21 -6 -33 6 -36 15 -6 15 15 0 27 -4 27 -9z"/>
<path d="M1808 2046 c134 -125 155 -272 61 -421 -16 -26 -28 -49 -26 -51 2 -2
25 10 51 26 52 34 96 109 96 168 l0 32 75 0 76 0 -6 -37 c-4 -21 -19 -65 -35
-98 -16 -33 -28 -61 -26 -62 2 -2 18 7 37 19 71 48 107 169 79 270 -14 49 -78
129 -136 169 -46 32 -51 33 -178 37 l-130 5 62 -57z m302 -165 c20 -8 9 -10
-52 -10 -43 -1 -78 3 -78 7 0 12 102 15 130 3z"/>
<path d="M2143 2037 c53 -53 83 -106 98 -177 l11 -50 56 0 c81 0 375 19 380
25 11 11 -34 87 -65 111 -81 61 -267 118 -427 130 l-98 7 45 -46z m437 -157
c47 -5 13 -7 -127 -8 -123 -1 -193 2 -193 8 0 12 219 12 320 0z"/>
<path d="M4187 2064 c-9 -10 -9 -176 1 -190 4 -6 82 -16 182 -23 96 -7 187
-15 203 -18 59 -12 15 47 -88 116 -97 65 -278 135 -298 115z"/>
<path d="M778 2050 c-70 -21 -138 -99 -164 -185 -14 -49 -11 -85 6 -85 4 0 13
21 19 48 17 65 56 129 91 147 16 8 48 15 70 15 61 0 94 -37 109 -121 17 -98
15 -106 -34 -158 -28 -30 -45 -57 -45 -72 0 -32 -26 -69 -49 -69 -21 0 -87 66
-72 71 7 3 9 16 5 36 -5 25 -13 33 -34 38 -16 4 -34 13 -41 21 -29 36 -37 5
-15 -59 22 -60 66 -116 113 -144 36 -21 53 -25 98 -21 70 6 115 40 152 115 25
51 28 69 28 153 0 76 -4 104 -21 140 -45 96 -140 153 -216 130z"/>
<path d="M738 1933 c-40 -42 -80 -140 -68 -164 6 -10 13 -19 17 -19 3 0 28 23
54 51 47 48 69 55 69 23 0 -19 -28 -73 -47 -93 -17 -16 -13 -95 5 -113 17 -17
32 1 32 41 0 31 7 44 40 75 45 42 46 43 25 93 -9 20 -13 44 -9 55 3 10 -4 31
-16 48 -28 39 -67 40 -102 3z"/>
<path d="M2968 1815 c-14 -15 -9 -235 5 -239 6 -3 128 -7 270 -10 l257 -7 0
126 0 125 -107 0 c-60 0 -178 3 -263 6 -85 4 -158 3 -162 -1z"/>
<path d="M3575 1799 c-4 -5 -4 -62 0 -125 l7 -114 267 2 266 3 -2 114 c-1 62
-3 114 -5 116 -2 1 -121 5 -265 9 -181 4 -264 3 -268 -5z"/>
<path d="M4186 1790 c-1 -3 1 -54 4 -115 l5 -110 40 2 c22 1 124 5 226 9 l186
6 12 38 c13 45 14 81 2 112 -8 22 -18 25 -118 37 -126 15 -354 28 -357 21z"/>
<path d="M2493 1474 c-43 -18 -113 -43 -155 -55 -43 -13 -78 -26 -78 -29 0 -4
66 -23 148 -43 148 -36 351 -67 444 -67 l50 0 -4 104 c-2 58 -6 107 -8 109 -3
3 -76 7 -162 9 l-158 4 -77 -32z"/>
<path d="M4365 1499 c-71 -3 -140 -7 -152 -8 -22 -1 -23 -5 -23 -86 0 -66 3
-85 14 -85 26 0 171 52 237 86 68 34 129 79 129 95 0 10 -4 10 -205 -2z"/>
<path d="M2968 1494 c-3 -5 -3 -57 0 -115 l4 -106 181 -6 c99 -4 221 -7 270
-7 l90 0 -6 112 c-4 61 -8 112 -9 113 -9 8 -526 16 -530 9z"/>
<path d="M3584 1477 c-2 -7 -3 -58 -2 -113 l3 -99 60 -3 c70 -4 322 14 413 30
l63 10 -3 92 -3 91 -263 3 c-212 2 -263 0 -268 -11z"/>
</g>
</svg>
